<mxfile host="app.diagrams.net" modified="2023-12-29T02:36:08.201Z" agent="Mozilla/5.0 (Windows NT 10.0; Win64; x64) AppleWebKit/537.36 (KHTML, like Gecko) Chrome/120.0.0.0 Safari/537.36" etag="04oJhl4uv0asxvESMWGQ" version="22.1.15" type="github">
  <diagram id="C5RBs43oDa-KdzZeNtuy" name="Page-1">
    <mxGraphModel dx="1816" dy="541" grid="1" gridSize="10" guides="1" tooltips="1" connect="1" arrows="1" fold="1" page="1" pageScale="1" pageWidth="827" pageHeight="1169" math="0" shadow="0">
      <root>
        <mxCell id="WIyWlLk6GJQsqaUBKTNV-0" />
        <mxCell id="WIyWlLk6GJQsqaUBKTNV-1" parent="WIyWlLk6GJQsqaUBKTNV-0" />
        <mxCell id="aPV8XcEKE8DMEjJSvruH-8" style="edgeStyle=orthogonalEdgeStyle;rounded=0;orthogonalLoop=1;jettySize=auto;html=1;exitX=0.5;exitY=1;exitDx=0;exitDy=0;fontSize=12;" edge="1" parent="WIyWlLk6GJQsqaUBKTNV-1" source="aPV8XcEKE8DMEjJSvruH-2" target="aPV8XcEKE8DMEjJSvruH-5">
          <mxGeometry relative="1" as="geometry" />
        </mxCell>
        <mxCell id="aPV8XcEKE8DMEjJSvruH-2" value="Khách Hàng đến Genki Plaz Mua Hàng" style="ellipse;whiteSpace=wrap;html=1;fontSize=12;" vertex="1" parent="WIyWlLk6GJQsqaUBKTNV-1">
          <mxGeometry x="310" y="20" width="135" height="70" as="geometry" />
        </mxCell>
        <mxCell id="aPV8XcEKE8DMEjJSvruH-5" value="Kiểm tra đối tượng khách hàng" style="rhombus;whiteSpace=wrap;html=1;fontSize=12;" vertex="1" parent="WIyWlLk6GJQsqaUBKTNV-1">
          <mxGeometry x="312.5" y="140" width="130" height="120" as="geometry" />
        </mxCell>
        <mxCell id="aPV8XcEKE8DMEjJSvruH-9" value="" style="endArrow=classic;html=1;rounded=0;fontSize=12;" edge="1" parent="WIyWlLk6GJQsqaUBKTNV-1" target="aPV8XcEKE8DMEjJSvruH-36">
          <mxGeometry width="50" height="50" relative="1" as="geometry">
            <mxPoint x="322.5" y="199.65999999999988" as="sourcePoint" />
            <mxPoint x="170" y="199.66" as="targetPoint" />
          </mxGeometry>
        </mxCell>
        <mxCell id="aPV8XcEKE8DMEjJSvruH-11" value="Khách hàng&lt;br style=&quot;font-size: 12px;&quot;&gt;&amp;nbsp;Lần đầu mua sắm" style="edgeLabel;html=1;align=center;verticalAlign=middle;resizable=0;points=[];fontSize=12;" vertex="1" connectable="0" parent="aPV8XcEKE8DMEjJSvruH-9">
          <mxGeometry x="0.0087" y="7" relative="1" as="geometry">
            <mxPoint x="5" y="-7" as="offset" />
          </mxGeometry>
        </mxCell>
        <mxCell id="aPV8XcEKE8DMEjJSvruH-10" value="" style="endArrow=classic;html=1;rounded=0;fontSize=12;" edge="1" parent="WIyWlLk6GJQsqaUBKTNV-1" source="aPV8XcEKE8DMEjJSvruH-5" target="aPV8XcEKE8DMEjJSvruH-14">
          <mxGeometry width="50" height="50" relative="1" as="geometry">
            <mxPoint x="449.99999999999994" y="199.53999999999996" as="sourcePoint" />
            <mxPoint x="639.46" y="199.5" as="targetPoint" />
          </mxGeometry>
        </mxCell>
        <mxCell id="aPV8XcEKE8DMEjJSvruH-12" value="Khách Hàng&lt;br style=&quot;font-size: 12px;&quot;&gt;Thành Viên" style="edgeLabel;html=1;align=center;verticalAlign=middle;resizable=0;points=[];fontSize=12;" vertex="1" connectable="0" parent="aPV8XcEKE8DMEjJSvruH-10">
          <mxGeometry x="-0.2933" y="-3" relative="1" as="geometry">
            <mxPoint x="8" as="offset" />
          </mxGeometry>
        </mxCell>
        <mxCell id="aPV8XcEKE8DMEjJSvruH-14" value="Mua hàng" style="rounded=1;whiteSpace=wrap;html=1;fontSize=12;" vertex="1" parent="WIyWlLk6GJQsqaUBKTNV-1">
          <mxGeometry x="600" y="170" width="120" height="60" as="geometry" />
        </mxCell>
        <mxCell id="aPV8XcEKE8DMEjJSvruH-15" value="Mua hàng" style="rounded=1;whiteSpace=wrap;html=1;fontSize=12;" vertex="1" parent="WIyWlLk6GJQsqaUBKTNV-1">
          <mxGeometry x="40" y="290" width="120" height="60" as="geometry" />
        </mxCell>
        <mxCell id="aPV8XcEKE8DMEjJSvruH-16" value="Đến quầy Thanh Toán" style="rounded=1;whiteSpace=wrap;html=1;fontSize=12;" vertex="1" parent="WIyWlLk6GJQsqaUBKTNV-1">
          <mxGeometry x="40" y="410" width="120" height="60" as="geometry" />
        </mxCell>
        <mxCell id="aPV8XcEKE8DMEjJSvruH-17" value="" style="endArrow=classic;html=1;rounded=0;fontSize=12;" edge="1" parent="WIyWlLk6GJQsqaUBKTNV-1" source="aPV8XcEKE8DMEjJSvruH-15" target="aPV8XcEKE8DMEjJSvruH-16">
          <mxGeometry width="50" height="50" relative="1" as="geometry">
            <mxPoint x="390" y="350" as="sourcePoint" />
            <mxPoint x="440" y="300" as="targetPoint" />
            <Array as="points">
              <mxPoint x="100" y="350" />
            </Array>
          </mxGeometry>
        </mxCell>
        <mxCell id="aPV8XcEKE8DMEjJSvruH-18" value="Thanh Toán&lt;br style=&quot;font-size: 12px;&quot;&gt;Tiền mặt/ Chuyển Khoản" style="rounded=1;whiteSpace=wrap;html=1;fontSize=12;" vertex="1" parent="WIyWlLk6GJQsqaUBKTNV-1">
          <mxGeometry x="30" y="705" width="120" height="60" as="geometry" />
        </mxCell>
        <mxCell id="aPV8XcEKE8DMEjJSvruH-21" value="" style="endArrow=classic;html=1;rounded=0;fontSize=12;" edge="1" parent="WIyWlLk6GJQsqaUBKTNV-1" source="aPV8XcEKE8DMEjJSvruH-16">
          <mxGeometry width="50" height="50" relative="1" as="geometry">
            <mxPoint x="110" y="360" as="sourcePoint" />
            <mxPoint x="100" y="520.0000000000001" as="targetPoint" />
            <Array as="points" />
          </mxGeometry>
        </mxCell>
        <mxCell id="aPV8XcEKE8DMEjJSvruH-24" value="" style="endArrow=classic;html=1;rounded=0;" edge="1" parent="WIyWlLk6GJQsqaUBKTNV-1">
          <mxGeometry width="50" height="50" relative="1" as="geometry">
            <mxPoint x="155" y="579.6600000000001" as="sourcePoint" />
            <mxPoint x="230" y="580" as="targetPoint" />
          </mxGeometry>
        </mxCell>
        <mxCell id="aPV8XcEKE8DMEjJSvruH-29" value="Đăng ký" style="edgeLabel;html=1;align=center;verticalAlign=middle;resizable=0;points=[];" vertex="1" connectable="0" parent="aPV8XcEKE8DMEjJSvruH-24">
          <mxGeometry x="-0.029" y="1" relative="1" as="geometry">
            <mxPoint as="offset" />
          </mxGeometry>
        </mxCell>
        <mxCell id="aPV8XcEKE8DMEjJSvruH-26" value="" style="endArrow=classic;html=1;rounded=0;" edge="1" parent="WIyWlLk6GJQsqaUBKTNV-1" source="aPV8XcEKE8DMEjJSvruH-28" target="aPV8XcEKE8DMEjJSvruH-18">
          <mxGeometry width="50" height="50" relative="1" as="geometry">
            <mxPoint x="90.00333333333325" y="669.9966666666668" as="sourcePoint" />
            <mxPoint y="620" as="targetPoint" />
            <Array as="points">
              <mxPoint x="10" y="580" />
              <mxPoint x="-50" y="580" />
              <mxPoint x="-50" y="720" />
              <mxPoint y="720" />
            </Array>
          </mxGeometry>
        </mxCell>
        <mxCell id="aPV8XcEKE8DMEjJSvruH-32" value="Không &lt;br&gt;đăng ký" style="edgeLabel;html=1;align=center;verticalAlign=middle;resizable=0;points=[];" vertex="1" connectable="0" parent="aPV8XcEKE8DMEjJSvruH-26">
          <mxGeometry x="-0.0713" relative="1" as="geometry">
            <mxPoint as="offset" />
          </mxGeometry>
        </mxCell>
        <mxCell id="aPV8XcEKE8DMEjJSvruH-27" value="Hướng dẫn về quy trình mua sắm thanh toán tự động cho lần sau" style="rounded=1;whiteSpace=wrap;html=1;" vertex="1" parent="WIyWlLk6GJQsqaUBKTNV-1">
          <mxGeometry x="230" y="550" width="120" height="60" as="geometry" />
        </mxCell>
        <mxCell id="aPV8XcEKE8DMEjJSvruH-28" value="Hướng dẫn đăng ký thành viên Geki Plaza" style="rhombus;whiteSpace=wrap;html=1;" vertex="1" parent="WIyWlLk6GJQsqaUBKTNV-1">
          <mxGeometry x="45" y="520" width="110" height="120" as="geometry" />
        </mxCell>
        <mxCell id="aPV8XcEKE8DMEjJSvruH-35" value="" style="endArrow=classic;html=1;rounded=0;" edge="1" parent="WIyWlLk6GJQsqaUBKTNV-1" source="aPV8XcEKE8DMEjJSvruH-27" target="aPV8XcEKE8DMEjJSvruH-18">
          <mxGeometry width="50" height="50" relative="1" as="geometry">
            <mxPoint x="380" y="540" as="sourcePoint" />
            <mxPoint x="430" y="490" as="targetPoint" />
            <Array as="points">
              <mxPoint x="290" y="740" />
            </Array>
          </mxGeometry>
        </mxCell>
        <mxCell id="aPV8XcEKE8DMEjJSvruH-36" value="Hướng dẫn tra cứu thông tin, vị trí sản phẩm trên Standee điện tử" style="rounded=1;whiteSpace=wrap;html=1;fontSize=12;" vertex="1" parent="WIyWlLk6GJQsqaUBKTNV-1">
          <mxGeometry x="40" y="170" width="120" height="60" as="geometry" />
        </mxCell>
        <mxCell id="aPV8XcEKE8DMEjJSvruH-37" value="" style="endArrow=classic;html=1;rounded=0;" edge="1" parent="WIyWlLk6GJQsqaUBKTNV-1" source="aPV8XcEKE8DMEjJSvruH-36" target="aPV8XcEKE8DMEjJSvruH-15">
          <mxGeometry width="50" height="50" relative="1" as="geometry">
            <mxPoint x="380" y="340" as="sourcePoint" />
            <mxPoint x="430" y="290" as="targetPoint" />
          </mxGeometry>
        </mxCell>
      </root>
    </mxGraphModel>
  </diagram>
</mxfile>
